  <svg xmlns="http://www.w3.org/2000/svg" width="70" height="70" viewBox="-0.5 0 70 70">
        <g fill="none" fillRule="evenodd">
          <path
            fill="white"
            d="M29.992 58.782a2.005 2.005 0 0 1-2.005 2.005h-12.23a2.005 2.005 0 0 1-2.004-2.005v-9.429c0-1.108.897-2.006 2.005-2.006h12.229c1.107 0 2.005.898 2.005 2.006v9.43zm24.795-23.724c-.941.08-1.896 1.566-2.418 2.087a6.358 6.358 0 0 1-4.526 1.875 6.36 6.36 0 0 1-4.526-1.875c-.583-.583-1.578-2.074-2.43-2.06-.947.016-1.772 1.482-2.351 2.06a6.358 6.358 0 0 1-4.526 1.875 6.36 6.36 0 0 1-4.526-1.875c-.557-.556-1.463-1.905-2.255-2.03-.991-.156-1.921 1.426-2.526 2.03a6.358 6.358 0 0 1-4.525 1.875 6.358 6.358 0 0 1-4.526-1.875c-.535-.533-1.345-1.759-2.052-1.987-1.094-.353-1.646 1.215-2.73 1.987-.712.51-1.547.83-2.216 1.404-.323.276-.602.612-.731 1.022-.17.534-.14.991-.14 1.545v23.919a4.007 4.007 0 0 0 4.009 4.008H30.34c1.102 0 2.574.352 2.592-1.157.009-.76 0-1.522 0-2.283V48.961a4.503 4.503 0 0 1 4.497-4.498h11.855a4.503 4.503 0 0 1 4.498 4.498v15.023c0 1.44-.192 3.027 0 4.453.106.8.695.606 1.363.606h1.464a4.007 4.007 0 0 0 4.008-4.008V40.763c0-.374.025-.758 0-1.132-.071-1.107-.681-.79-1.582-1.182a6.185 6.185 0 0 1-1.884-1.304c-.493-.492-1.414-1.874-2.047-2.056-.105-.03-.211-.039-.317-.03z"
          ></path>
          <g fill="white" transform="translate(0 .184)">
            <path d="M67.737 26.71L59.004 4.46A5.745 5.745 0 0 0 53.657.816H14.363A5.743 5.743 0 0 0 9.017 4.46L.283 26.71a4.093 4.093 0 0 0 .916 4.39l2.741 2.74a3.39 3.39 0 0 0 2.405.996c.87 0 1.741-.331 2.405-.995l3.212-3.213a1.834 1.834 0 0 1 2.599 0l3.212 3.212a3.39 3.39 0 0 0 2.404.996 3.39 3.39 0 0 0 2.405-.995l3.212-3.213a1.834 1.834 0 0 1 2.599 0l3.212 3.212a3.391 3.391 0 0 0 2.405.996 3.39 3.39 0 0 0 2.405-.995l3.212-3.213a1.834 1.834 0 0 1 2.599 0l3.212 3.212a3.391 3.391 0 0 0 2.405.996 3.39 3.39 0 0 0 2.405-.995l3.212-3.213a1.832 1.832 0 0 1 2.599 0l3.213 3.212a3.39 3.39 0 0 0 2.404.996 3.39 3.39 0 0 0 2.405-.995l2.74-2.742a4.091 4.091 0 0 0 .916-4.389"></path>
          </g>
          <path
            fill="white"
            d="M46.764 56.121c1.09.012 2.177.773 2.177 2.065 0 1.31-1.168 2.394-2.484 2.184-1.383-.22-2.231-1.797-1.628-3.066.39-.823 1.164-1.19 1.935-1.183zm4.018-7.16c0-.827-.671-1.498-1.498-1.498H37.43c-.828 0-1.498.671-1.498 1.498v8.418c0 2.02-.026 4.041-.035 6.061-.004.991-.005 1.981.004 2.97.006.716-.356 2.05.326 2.571.344.263.95.142 1.347.141h10.478c1.077 0 2.697.446 2.73-1.058.015-.738 0-1.479 0-2.217V48.961zM26.654 52.046c-.163-.5-.41-.945-.826-1.201-.715-.437-1.335-.026-2.047.118-.819.165-1.639.318-2.458.478l-2.341.454c-.773.149-1.758.124-2.124.955-.3.676-.122 1.498.046 2.186.148.604.22 1.357.736 1.77.96.768 3.505-.183 4.598-.395l3.515-.682a1.607 1.607 0 0 0 1.27-1.884c-.1-.519-.174-1.198-.37-1.799"
          ></path>
        </g>
      </svg>