 <svg xmlns="http://www.w3.org/2000/svg" width="70" height="70" viewBox="-0.5 -2 70 70">
        <g fill="none" fillRule="evenodd">
          <path
            fill="white"
            d="M37.173 40.059c-.2.388-.58.675-1.018.769l-.06.012c-.07.013-.142.021-.214.022-.52.009-.993-.257-1.37-.471l-2.103-1.187c-.792-.449-1.61-.913-2.509-1.105-.794-.17-1.608-.11-2.412.003.325 1.208.68 2.982.72 3.463.107 1.348-.959 3.932-1.422 4.982a1.52 1.52 0 0 1-.522.636 1.522 1.522 0 0 1-1.496.148 1.535 1.535 0 0 1-.784-2.02c.688-1.563 1.185-3.144 1.17-3.514-.024-.291-.724-2.694-1.204-3.918-.577-.67-1.769-2.658-2.484-3.851l-.152-.253c-.24.196-.446.406-.604.617a1.94 1.94 0 0 0-.35.695c-.147.6.108 1.319.757 2.138.255.32.37.72.322 1.127-.047.406-.249.77-.569 1.024-.685.521-1.628.412-2.152-.249-1.273-1.604-1.72-3.214-1.33-4.784.392-1.581 2.046-3.125 2.74-3.715.902-.768 1.97-1.274 2.995-1.454.671-.111 1.244-.069 1.701.125l.204.09c.471.212.782.354 1.264.07.421-.245.57-.759.725-1.305.224-.777.478-1.658 1.657-1.587a1.526 1.526 0 0 1 1.435 1.615c-.093 1.56-.765 2.894-1.893 3.756a4.571 4.571 0 0 1-2.421.925l.01.02c.31.705.697 1.582 1.376 1.791.203.062.476.043.74.025.184-.013.373-.026.55-.013a9.551 9.551 0 0 1 1.64.264c2.257.553 4.267 1.728 6.133 2.886.122.077.244.153.36.238.208.152.36.301.473.467.302.438.341 1.047.097 1.518M19.008 23.011c1.498-.768 3.374-.099 4.194 1.497.821 1.598.273 3.513-1.225 4.282-1.498.77-3.373.1-4.194-1.497-.82-1.597-.273-3.512 1.225-4.282m20.334 5.04c-5.496-5.073-7.79-12.212-5.983-18.628.188-.669.637-1.359.735-2.035.038-.261-.025-.551-.225-.722-.362-.307-.709.055-1.008.251-.353.23-.706.46-1.058.692-1.47.961-.62.337-2.092 1.299a9048.256 9048.256 0 0 0-5.643 3.688l-5.785 3.78-4.676 3.06c-.17.111-.405.218-.512.396-.193.322.087.619.26.881a3.147 3.147 0 0 1-4.117 4.502c-.608-.324-.895-.967-1.362-1.337-.467-.369-2.563.978-3.359 1.498-4.61 3.014-5.904 9.193-2.89 13.802L9.06 50.553a9.976 9.976 0 0 0 9.61 4.438 9.944 9.944 0 0 0 4.191-1.547l1.164-.76.944-.617c.29-.189.55-.249.89-.207.381.047.445.176.647.485a3.154 3.154 0 0 0 3.035 1.402 3.148 3.148 0 0 0 2.236-4.847c-.37-.567-.656-.855.017-1.295l5.293-3.459c2.77-1.811 3.023-1.979 5.793-3.789 2.78-1.818 3.238-2.048 6.02-3.865l3.245-2.122.846-.553a20.82 20.82 0 0 1-6.36-1.293 21.997 21.997 0 0 1-7.289-4.473"
          ></path>
          <g fill="white" transform="translate(60 24.792)">
            <path d="M.708 7.877l.346 2.723c.105.889.225 1.777.338 2.666l.17 1.334c.026.211-.013.719.236.827.205.089.455-.197.628-.312l1.394-.909 1.962-1.28A6.665 6.665 0 0 0 8.8 7.033C8.763 6.274 8.456.992 8.16.979c-.08-.004-.085.141-.124.182-.139.144-.228.405-.332.577a15.263 15.263 0 0 1-2.513 3.134 15.628 15.628 0 0 1-2.12 1.7C2.86 6.712.702 7.833.707 7.877"></path>
          </g>
          <path
            fill="white"
            d="M58.08 34.306c-.337-.088-.839.317-1.255.588l-1.77 1.158-6.944 4.538c-2.728 1.783-3.136 1.982-5.864 3.765-2.274 1.486-2.03 1.33-4.306 2.817-.713.466-1.499.89-2.169 1.417-.493.388-.567.839-.508 1.44a6.14 6.14 0 0 1-.105 1.854 6.103 6.103 0 0 1-2.654 3.885 6.077 6.077 0 0 1-2.587.954 6.158 6.158 0 0 1-2.89-.333c-.887-.326-1.568-1.061-2.526-.435a12.829 12.829 0 0 1-5.455 2.012c-4.895.621-9.8-1.644-12.498-5.772l-6.054-9.95.961 4.905c.457 2.331.953 4.684 1.968 6.847 1.061 2.258 2.548 4.065 4.281 5.863 1.917 1.986 4.093 4.056 6.625 5.235 3.667 1.705 8.215-.041 11.561-1.728a34.44 34.44 0 0 0 1.628-.878c.25-.145.495-.295.743-.441.813-.477.983.157 1.45.684.474.532 1.06.964 1.71 1.257 1.297.586 2.818.589 4.086-.078 1.755-.92 2.638-2.739 2.527-4.543l-.037-.291c-.006-.047-.01-.094-.018-.141l-.159-1.25-.119-.94c-.134-1.071 1.19-1.627 1.938-2.115l2.935-1.916 5.21-3.402c2.447-1.597 2.572-1.608 5.02-3.204 1.17-.766 2.34-1.53 3.525-2.303l.044-.033c.432-.281.863-.564 1.295-.846.311-.202.66-.386.948-.618.691-.554.597-1.227.5-2.004l-.373-2.929-.31-2.452c-.052-.394-.182-.571-.355-.617"
          ></path>
          <g fill="white" transform="translate(35 .792)">
            <path d="M25.021 11.287l-4.424 9.315a.986.986 0 0 1-.895.57 1.09 1.09 0 0 1-.944-.567l-1.24-2.209c-.182-.32-.394-1.007-.816-1.025-.445-.02-.9.431-1.264.636l-1.82 1.021c-.787.444-1.575.886-2.362 1.328-.978.55-2.179.226-2.775-.729l-.033-.059c-.579-1.03-.214-2.244.788-2.806l2.326-1.307c.486-.273 1.003-.494 1.493-.762.457-.249 1.334-.623 1.53-1.16.184-.513-.689-1.582-.943-2.032l-.717-1.277a1.094 1.094 0 0 1 .007-1.1.99.99 0 0 1 .951-.47l10.258 1.068c.347.036.66.245.837.56.176.313.192.69.043 1.005M26.737 5.2a19.078 19.078 0 0 0-6.299-3.863c-2.857-1.06-5.73-1.349-8.365-.97-5.162.74-9.408 4.034-10.827 9.077-1.536 5.457.655 11.48 5.131 15.611a19.097 19.097 0 0 0 6.3 3.864c2.856 1.061 5.73 1.348 8.364.971 5.162-.74 9.408-4.036 10.827-9.079 1.536-5.457-.654-11.479-5.13-15.61"></path>
          </g>
        </g>
      </svg>