<svg xmlns="http://www.w3.org/2000/svg" width="70" height="70" viewBox="-1 -0.5 70 70">
        <g fill="none" fillRule="evenodd">
          <g fill="white" transform="translate(41 .765)">
            <path d="M19.112 26.343l5.158-5.077c1.747-1.762 2.436-4.444 1.609-7.128-.674-2.187-2.224-4.943-5.464-8.162-3.24-3.22-6.006-4.751-8.195-5.41a7.807 7.807 0 0 0-1.883-.324 9.386 9.386 0 0 0-.334-.006c-1.885 0-3.63.722-4.892 1.995L.903 6.346C9.572 10.28 15.83 17.153 19.112 26.343"></path>
          </g>
          <path
            fill="white"
            d="M10.207 51.855l-.875-.725-1.152-.81a32.066 32.066 0 0 0-4.693-2.758c-.572-.27-.816-.538-1.354-.148-.436.316-.754.895-.983 1.367a7.034 7.034 0 0 0-.685 3.102c.013.981-.15 1.98.033 2.953.165.876.477 1.075 1.216 1.53 1.834 1.129 3.486 2.447 5.2 4.15 2.353 2.337 4.012 4.93 4.99 6.691.623 1.126 1.326.983 2.53.976.807-.006 1.615-.01 2.423-.015a6.655 6.655 0 0 0 2.761-.623c.96-.448 1.644-.764 1.121-1.835a49.362 49.362 0 0 0-3.084-5.42l-.773-1.176-.723-.966c-1.788-2.39-3.79-4.507-5.952-6.294"
          ></path>
          <g fill="white" transform="translate(0 58.765)">
            <path d="M1.57 10c1.775 0 3.552-.047 5.327-.07.505-.007 1.01-.009 1.517-.02.496-.012.738.066.643-.485C8.91 8.571 7.872 7.591 7.37 6.9A25.01 25.01 0 0 0 4.8 3.88a28.682 28.682 0 0 0-2.293-2.059c-.452-.36-.86-.778-1.343-1.097C.692.414.339.137.133.662c-.28.714-.031 2.062-.043 2.825-.025 1.66-.084 3.321-.076 4.98.004.785.7 1.496 1.478 1.531L1.57 10"></path>
          </g>
          <path
            fill="white"
            d="M20.451 58.875c-.029.241.15.458.344.768a50.24 50.24 0 0 1 1.876 3.252c.15.282.486 1.399.898 1.357.117-.013.437-.44.536-.539.476-.484.952-.967 1.43-1.45l4.623-4.692 6.013-6.1 6.243-6.335 5.314-5.392 3.227-3.274c.328-.333.427-.44.326-.919-.087-.406-.279-.782-.414-1.174a40.637 40.637 0 0 0-1.229-3.142c-.126-.287-.347-1.149-.703-1.185-.319-.032-.655.533-.846.725l-3.704 3.744-5.534 5.591a37401.7 37401.7 0 0 0-6.248 6.315l-5.852 5.912-4.34 4.387-1.719 1.736c-.155.156-.226.289-.24.415M9.987 47.433a.387.387 0 0 0 .02-.021c.663-.668 1.325-1.338 1.987-2.007l4.485-4.532 5.908-5.97c2.087-2.11 4.173-4.217 6.26-6.324l5.536-5.595 3.74-3.78c.176-.177.353-.354.528-.534.056-.056.154-.123.19-.192.168-.312-.05-.415-.31-.591-1.063-.716-2.318-1.3-3.508-1.774-.458-.182-.984-.557-1.452-.297-.59.326-.948.98-1.41 1.449L27.788 21.5l-5.694 5.778-6.18 6.27-5.634 5.718c-1.353 1.37-2.704 2.743-4.056 4.115-.315.32-.686.577-.986.913-.098.11-.362.36-.344.528.025.214.603.383.796.482.643.33 1.252.743 1.869 1.118.526.32 1.817 1.628 2.429 1.01M12.316 49.53c.027.33.484.59.705.783a38.449 38.449 0 0 1 1.965 1.864c.667.68 1.31 1.38 1.927 2.105.422.496.71 1.112 1.204 1.548.608.535.88.078 1.354-.4l3.67-3.709 5.496-5.553c2.082-2.106 4.166-4.21 6.25-6.317l5.937-5.999 4.55-4.597 1.42-1.437c.142-.142.322-.28.44-.443.502-.686-.653-1.72-1.04-2.257a27.805 27.805 0 0 0-1.5-1.904c-.622-.723-1.309-1.402-1.983-2.076-.279-.278-.716-.894-1.096-1.03-.559-.199-1.217.86-1.564 1.21-1.35 1.364-2.7 2.73-4.052 4.094L30.272 31.2c-2.108 2.132-4.217 4.263-6.326 6.393l-5.853 5.914-4.3 4.345c-.293.293-.583.59-.875.885-.182.184-.566.443-.601.715a.42.42 0 0 0-.002.08M39.533 9.34l-3.63 3.768c9.492 3.78 14.954 11.56 17.946 20.257l3.868-4.006c-2.764-8.693-8.521-16.043-18.184-20.018"
          ></path>
        </g>
      </svg>