 <svg xmlns="http://www.w3.org/2000/svg" width="70" height="70" viewBox="-1.5 -2 70 70">
        <g fill="none" fillRule="evenodd">
          <g fill='white' transform="translate(16 17.281)" >
            <path d="M41.08 40.079a5.774 5.774 0 0 1-3.365 2.723 5.334 5.334 0 0 1-3.446-.123c-2.286-.89-3.92-3.434-3.438-5.893.447-2.278 2.44-4.28 4.777-4.55 2.347-.27 4.487 1.079 5.51 3.163.778 1.589.81 3.134-.038 4.68m7.869-34.27c-.23-.388-.687-.806-1.345-1.242-1.941-1.284-4.232-2.081-6.431-2.793a63.984 63.984 0 0 0-2.348-.706C38.3.922 37.038.324 36.532.44c-.754.175-.281.978-.091 1.663.187.676.367 1.353.54 2.032.22.862.204 1.783.524 2.624.513 1.353 1.384.959 2.647.967 2.156.015 3.95 1.42 4.744 3.385.96 2.38.622 5.193-1.501 6.779a5.673 5.673 0 0 1-2.228.999c-1.176.244-1.601.03-1.815 1.334-.148.904.004 1.846-.162 2.744-.18.973-.467 1.99-1.107 2.769-2.436 2.973-7.24 4.424-10.697 5.678a111.182 111.182 0 0 1-8.396 2.649c-2.386.657-1.482 2.28-2.662 3.995-.813 1.179-2.15 1.767-3.528 1.99-1.753.284-3.504.005-4.738-1.357-.533-.59-.771-1.551-1.501-1.803-.961-.331-2.367.268-3.338.378-.544.06-1.963-.098-2.268.345-.42.61.477 2.61.863 3.126C4.804 44.723 24.984 48 36.45 48c3.404 0 6.038-.29 7.23-.934.617-.333 2.052-2.304 3.504-7.568 3.428-12.422 3.917-30.072 1.765-33.69"></path>
          </g>
          <path
            fill='white'
            d="M22.619 11.046c1.064-.467 3.36-.648 4.134.395.203.274.258.912.35 1.24a4614.723 4614.723 0 0 1 4.692 16.428c.722 2.542 1.442 5.087 2.15 7.635.212.767.528 1.507.76 2.27.1.322.406.97.297 1.307-.12.372-.823.732-1.155.857-.727.272-1.462.524-2.202.76-.598.187-1.563.652-2.198.545-.818-.139-.992-1.133-1.177-1.76-.646-2.198-1.256-4.407-1.867-6.615-.791-2.854-1.573-5.71-2.352-8.569a4902.85 4902.85 0 0 1-1.62-5.945c-.05-.18-.088-.68-.312-.688-.198-.006-.41.39-.524.516-.233.26-.468.52-.703.777a92.904 92.904 0 0 1-2.544 2.707c-.356.362-.715.722-1.097 1.057-.161.142-.407.418-.637.447-.394.062-3.006-4.029-2.918-4.26.8-1.64 2.678-3.096 3.939-4.369.762-.77 1.536-1.53 2.319-2.28.744-.71 1.72-2.035 2.665-2.455M2.567 31.883c2.79 11.553 6.129 18.056 8.05 19.208.853.511 2.327.736 4.225.736 10.446 0 33.748-6.84 36.922-10.712.446-.543 1.028-2.91.38-8.332C50.62 19.988 44.395 3.464 41.035.93c-.36-.274-.942-.488-1.715-.64C38.363.097 37.112 0 35.623 0c-4.751 0-11.937 1-19.801 3.193C5.516 6.068.979 9.103.444 10.443c-.924 2.305-.492 10.604 2.123 21.44"
          ></path>
        </g>
 </svg>