 <svg xmlns="http://www.w3.org/2000/svg" width="70" height="70" viewBox="-1 -3 70 70">
        <g fill="none" fillRule="evenodd">
          <g fill="white" transform="translate(24 .388)">
            <path d="M22.749 49.99c.23.028.459.041.687.041 2.072 0 3.171-.93 4.989-2 2.745-1.615 5.683-2.877 8.331-4.664 2.038-1.376 5.842-4.269 5.669-7.057-.065-1.05-.55-2.023-1.025-2.963-1.262-2.495-8.387-12.033-2.702-12.818.86-.118 1.753-.053 2.576-.325 3.337-1.107 2.832-6.099 1.608-8.612-.904-1.857-2.779-3.33-4.84-3.33h-.064c-1.922.03-3.512 1.481-3.871 3.322-.211 1.084-.221 2.938-1.334 2.938-.314 0-.716-.147-1.235-.503-.728-.497-1.19-1.289-1.628-2.054l-4.717-8.243c-.452-.789-.915-1.592-1.577-2.216-.687-.648-1.474-.895-2.301-.895-1.833 0-3.856 1.213-5.387 1.954-1.274.616-2.778 1.7-2.399 3.063.308 1.106 1.642 1.478 2.625 2.075 1.796 1.09 2.649 3.512 1.933 5.486-.508 1.402-1.769 2.47-3.2 2.858-.384.105-.781.16-1.178.16-.209 0-.417-.016-.624-.047-2.077-.316-3.796-2.225-3.894-4.323-.043-.93.181-1.942-.3-2.74-.415-.687-1.1-.943-1.81-.943-.466 0-.943.11-1.363.281-1.306.535-1.989.835-3.23 1.536-1.249.706-2.294 1.94-2.382 3.373-.056.923.282 1.821.623 2.68.468 1.181 1.13 2.31 1.705 3.441.519 1.021 1.037 2.07 1.62 3.064.133.226.271.452.467.625s.46.286.718.244c.435-.07.871-.776 1.177-1.059A7.392 7.392 0 0 1 8.2 21.105c4.216-2.042 8.026 1.161 10.052 4.74.77 1.358 1.351 2.822 1.67 4.353.276 1.326.656 3.318-.257 4.48-1.49 1.893-3.585 2.623-5.717 3.562-.338.148-.699.317-.882.64-.321.561.565 1.844.85 2.314 1.908 3.14 4.758 8.301 8.833 8.796"></path>
          </g>
          <g fill="white" transform="translate(0 15.388)">
            <path d="M1 14.952c1.434 2.907 2.588 5.948 4.173 8.786.731 1.31 2.064 3.14 3.595 3.14.47 0 .958-.173 1.454-.587 1.817-1.51 1.415-4.496 3.83-5.854a4.181 4.181 0 0 1 2.067-.523c1.595 0 3.24.803 4.317 2.027 2.582 2.936 3.4 8.801-1.712 9.582-.26.04-.526.055-.796.055-1.143 0-2.348-.289-3.446-.289-.79 0-1.524.15-2.14.668-.992.834-1.165 2.35-.76 3.58.537 1.631 1.872 3.507 2.811 4.965 1.03 1.601 2.297 3.06 3.264 4.701.593 1.004 1.247 2.068 2.308 2.553.37.17.793.244 1.238.244 1.72 0 3.809-1.11 4.86-2.135.736-.718 1.11-1.918.575-2.795-.378-.617-1.087-.928-1.66-1.367-1.42-1.09-1.99-3.163-1.323-4.825.615-1.534 2.235-2.595 3.881-2.595.136 0 .273.007.41.022 1.78.195 3.34 1.671 3.632 3.44.168 1.012-.026 2.13.508 3.006.385.63 1.078.893 1.906.893 2.647 0 6.66-2.695 6.291-4.693-.1-.545-.471-.992-.831-1.413-1.51-1.767-6.128-8.919-6.651-10.642-.468-1.543-.087-3.47 1.298-4.297 1.408-.837 3.338-.31 4.72-1.187 2.026-1.283 1.877-3.916.743-6.102-.941-1.813-2.564-3.317-4.186-3.48a3.656 3.656 0 0 0-.377-.019c-1.547 0-3.075.937-3.743 2.34-.53 1.111-.846 3.292-2.268 3.292-.24 0-.512-.06-.822-.2-1.232-.56-4.889-8.383-5.982-10.429C21.128 2.838 20.238.326 17.678.326c-.088 0-.18.003-.273.01-1.62.107-3.109.886-4.543 1.648C9.335 3.861 5.086 5.252 2.027 7.867.822 8.9-.08 10.407.006 11.99c.058 1.047.53 2.022.995 2.962"></path>
          </g>
        </g>
      </svg>