 <svg xmlns="http://www.w3.org/2000/svg" width="70" height="70" viewBox="-0.5 -1 70 70">
        <g fill="none" fillRule="evenodd">
          <path
            fill="white"
            d="M31.023 44.087c-.193.53-2.315.918-3.29 3.756-.736 2.15-.238 6.108 3.188 7.823 4.05 2.027 7.109.778 8.358-1.521 1.25-2.3.468-3.805.483-4.556.03-1.486 3.402-1.597 4.092-.608.453.65.169 2.32.089 3.105a11.672 11.672 0 0 1-1.16 4.029c-2.896 5.788-8.505 6.421-13.93 3.706-5.165-2.584-7.5-8.102-4.681-13.735.712-1.422 1.664-3.017 2.94-4.023.73-.576 1.608-.678 2.405-.183.545.34 1.767 1.492 1.506 2.207m-11.708-4.266a4.035 4.035 0 0 0-.574.793c-.605 1.059-.785 2.305-1.078 3.47a67.024 67.024 0 0 0-1.19 5.836c-1.137 7.163-.547 10.813.127 11.521 1.16 1.22 6.396 3.297 13.81 4.743 4.15.81 7.487 1.133 9.9 1.133 2.185 0 3.613-.264 4.208-.671.645-.445 1.056-1.213 1.403-1.89 1.8-3.52 2.59-7.672 3.298-11.525.406-2.214.735-4.446.96-6.686.082-.812.486-2.134-.187-2.687-.632-.52-1.86-.391-2.623-.572a89.93 89.93 0 0 1-3.571-.925c-10.805-3.031-12.31-5.576-12.802-6.411-.317-.536-.245-1.108-.872-1.162-.492-.042-1.165.528-1.583.736a81.18 81.18 0 0 1-7.103 3.15c-.94.36-1.575.577-2.123 1.148M49.325 22.257l.92.244c2.712.716 4.36.087 4.83-1.69.572-2.169-1.528-3.496-3.246-3.95a23.416 23.416 0 0 0-1.055-.25 1.149 1.149 0 0 0-1.35.822c-.275 1-.654 2.442-.91 3.424-.16.612.2 1.236.81 1.4M47.033 31.288c.557.188 1.126.364 1.785.538 2.983.787 4.642-.13 5.087-1.816.508-1.93-.726-3.48-3.68-4.257a39.193 39.193 0 0 0-1.567-.385 1.144 1.144 0 0 0-1.35.812 296.323 296.323 0 0 0-1.012 3.729 1.143 1.143 0 0 0 .737 1.379"
          ></path>
          <path
            fill="white"
            d="M46.32 12.995c1.697-.98 6 .422 6.3.5 4.822 1.273 8.076 3.84 6.988 7.968-.644 2.439-2.055 3.389-3.752 3.716-.078.035-.093.095-.047.18 1.765.884 3.459 3.136 2.656 6.179-1.074 4.066-4.585 5.042-9.738 3.684-2.801-.74-6.62-1.87-7.076-3.386-.457-1.517 2.97-17.862 4.668-18.841m-5.458 13.903c-.822 1.545-2.412 2.699-3.804 3.69-1.217.866-4.583 1.969-3.479 3.836 1.953 3.3 18.93 7.623 25.598 7.623.942 0 1.678-.086 2.137-.273.441-.18 1.553-1.401 2.92-4.841 3.224-8.116 4.855-19.971 3.671-22.567-.126-.28-.403-.594-.813-.935-2.13-1.771-7.854-4.241-14.938-5.862-3.785-.865-6.6-1.17-8.512-1.17-1.66 0-2.642.229-2.991.52-.642.533-1.072 1.356-1.465 2.074-.824 1.503-1.83 2.849-1.09 4.557.773 1.782 1.519 3.57 2.122 5.418 1.852 5.677.941 7.378.645 7.93M22.947 18.22c.131-.408-5.979-7.273-6.475-7.003-.496.271.238 9.417.557 9.608.318.192 5.787-2.2 5.918-2.606"
          ></path>
          <g fill="white" transform="translate(0 -.683)">
            <path d="M14.048 31.821c-.718-.41-2.343-21.448-1.69-22.296.653-.847 4.137-2.308 4.9-2.308.764 0 15.223 15.92 15.223 16.867 0 .947-2.996 2.267-3.785 2.103-.79-.164-2.99-3.973-3.702-4.01-.711-.036-6.994 2.603-7.197 3.114-.205.51.647 4.822.368 5.29-.28.464-3.4 1.65-4.117 1.24m24.167-5.65c.225-.42.299-2.072-.85-5.59C34.655 12.28 28.33 2.121 25.76.882c-.275-.134-.69-.2-1.224-.2-2.77 0-8.75 1.761-15.232 5.044C2.834 9.002.22 11.62.042 12.58c-.308 1.656 1.078 7.115 4.252 13.97 3.384 7.31 6.465 11.19 7.896 11.701.278.1.63.146 1.045.146 5.703 0 23.222-8.93 24.98-12.227"></path>
          </g>
        </g>
      </svg>